<?xml version="1.0" encoding="utf-8"?>
<!-- Generator: Adobe Illustrator 24.2.0, SVG Export Plug-In . SVG Version: 6.00 Build 0)  -->
<svg version="1.1" id="Слой_1" xmlns="http://www.w3.org/2000/svg" xmlns:xlink="http://www.w3.org/1999/xlink" x="0px" y="0px"
	 viewBox="0 0 912.7 912.6" style="enable-background:new 0 0 912.7 912.6;" xml:space="preserve">
<style type="text/css">
	.st0{fill-rule:evenodd;clip-rule:evenodd;fill:#FFFFFF;filter:url(#Adobe_OpacityMaskFilter);}
	.st1{mask:url(#mask0_1_);}
	.st2{fill-rule:evenodd;clip-rule:evenodd;fill:#FF6900;}
	.st3{fill-rule:evenodd;clip-rule:evenodd;fill:#FFFFFF;}
</style>
<defs>
	<filter id="Adobe_OpacityMaskFilter" filterUnits="userSpaceOnUse" x="0" y="0" width="912.7" height="912.6">
		<feColorMatrix  type="matrix" values="1 0 0 0 0  0 1 0 0 0  0 0 1 0 0  0 0 0 1 0"/>
	</filter>
</defs>
<mask maskUnits="userSpaceOnUse" x="0" y="0" width="912.7" height="912.6" id="mask0_1_">
	<path id="Clip_2_1_" class="st0" d="M0,0h912.7v912.6H0V0z"/>
</mask>
<g class="st1">
	<path id="Fill_1" class="st2" d="M817.5,95.4C731.4,9.6,607.6,0,456.3,0C304.8,0,180.9,9.7,94.8,95.7C8.7,181.7,0,305.5,0,456.8
		c0,151.3,8.7,275.2,94.8,361.2c86.1,86,210,94.7,361.5,94.7c151.5,0,275.4-8.7,361.5-94.7c86.1-86,94.8-209.8,94.8-361.2
		C912.7,305.3,903.8,181.3,817.5,95.4z"/>
	<g>
		<path class="st3" d="M422.7,625.4c0,3.1-2.6,5.6-5.7,5.6h-77.8c-3.2,0-5.8-2.5-5.8-5.6V421.9c0-3.1,2.6-5.6,5.8-5.6H417
			c3.1,0,5.7,2.5,5.7,5.6V625.4z M575.1,625.4c0,3.1-2.6,5.6-5.7,5.6h-74.1c-3.2,0-5.8-2.5-5.8-5.6v-0.8V449.8
			c-0.1-30.7-1.8-62.2-17.7-78c-13.6-13.6-39-16.8-65.4-17.4H272.2c-3.2,0-5.7,2.5-5.7,5.6v247.1v18.4c0,3.1-2.6,5.6-5.8,5.6h-74.1
			c-3.2,0-5.7-2.5-5.7-5.6V287.2c0-3.1,2.5-5.6,5.7-5.6h213.9c55.9,0,114.3,2.5,143.2,31.4c28.9,29,31.5,87.3,31.5,143.3V625.4z"/>
		<path id="Fill_7" class="st3" d="M727.7,625.4c0,3.1-2.6,5.6-5.8,5.6h-74.1c-3.2,0-5.7-2.5-5.7-5.6V287.2c0-3.1,2.6-5.6,5.7-5.6
			H722c3.1,0,5.8,2.5,5.8,5.6V625.4z"/>
	</g>
</g>
</svg>
